# xmcd
# 
# Track frame offsets:
#     150
#     25882
#     50623
# 
# Disc length: 878
# 
# Revision: 1
# Processed by: cddbd v1.5.2PL0 Copyright (c) Steve Scherf et al.
# Submitted via: BonkEnc v1.0.15
# 
DISCID=1f036c03
DTITLE=ROSSO - 1000のタンバリン/アウトサイダー Disk1
DYEAR=2004
DGENRE=Rock
TTITLE0=1000のタンバリン
TTITLE1=さよならサリー
TTITLE2=クローバー
EXTD=YEAR: 2004
EXTT0=
EXTT1=
EXTT2=
PLAYORDER=
